<?xml version="1.0" standalone="no"?>
<!DOCTYPE svg PUBLIC "-//W3C//DTD SVG 20010904//EN"
 "http://www.w3.org/TR/2001/REC-SVG-20010904/DTD/svg10.dtd">
<svg version="1.0" xmlns="http://www.w3.org/2000/svg"
 width="640.000000pt" height="640.000000pt" viewBox="0 0 640.000000 640.000000"
 preserveAspectRatio="xMidYMid meet">
<metadata>
Created by potrace 1.11, written by Peter Selinger 2001-2013
</metadata>
<g transform="translate(0.000000,640.000000) scale(0.100000,-0.100000)"
fill="#000000" stroke="none">
<path d="M5668 6357 c-50 -34 -4021 -2917 -4175 -3031 -53 -40 -73 -74 -73
-126 0 -53 23 -92 70 -119 37 -21 49 -21 554 -21 284 0 516 -2 516 -5 0 -3
-460 -645 -1021 -1427 -562 -782 -1026 -1434 -1031 -1450 -20 -58 12 -132 72
-163 51 -26 93 -19 162 28 50 34 4021 2917 4175 3031 53 40 73 74 73 126 0 53
-23 92 -70 119 -37 21 -49 21 -554 21 -284 0 -516 2 -516 5 0 3 459 645 1021
1427 562 781 1026 1434 1031 1450 20 58 -12 132 -72 163 -51 26 -93 19 -162
-28z m-534 -739 c-5 -7 -382 -533 -838 -1168 -457 -635 -838 -1171 -849 -1190
-32 -60 -10 -138 50 -177 25 -16 69 -18 473 -23 l446 -5 -1459 -1060 c-803
-583 -1511 -1098 -1574 -1143 -64 -46 -112 -78 -107 -70 4 7 382 533 838 1168
457 635 838 1171 849 1190 32 60 10 138 -50 177 -25 16 -69 18 -473 23 l-446
5 1571 1142 c863 628 1571 1142 1573 1142 2 1 0 -5 -4 -11z"/>
<path d="M2995 6080 c-588 -47 -1134 -262 -1590 -627 -526 -420 -895 -1024
-1025 -1673 -45 -227 -55 -334 -55 -595 1 -278 21 -446 85 -701 73 -289 214
-610 378 -859 116 -177 155 -222 201 -236 88 -26 170 28 178 118 5 43 1 54
-33 103 -141 206 -194 294 -264 435 -96 195 -140 312 -190 509 -62 244 -74
354 -75 641 0 262 6 331 52 550 147 713 609 1345 1258 1720 639 369 1429 445
2125 203 80 -27 164 -52 186 -55 82 -10 144 50 144 139 0 92 -58 129 -331 212
-320 97 -722 141 -1044 116z"/>
<path d="M5315 5001 c-49 -30 -68 -58 -72 -108 -5 -43 -1 -54 33 -103 141
-206 194 -294 264 -435 96 -195 140 -312 190 -509 53 -210 71 -349 77 -581 25
-968 -471 -1846 -1319 -2334 -643 -370 -1459 -442 -2150 -190 -62 23 -132 44
-154 46 -82 9 -144 -51 -144 -139 0 -92 58 -129 331 -212 278 -84 523 -119
834 -119 478 0 881 96 1303 309 691 350 1206 957 1447 1708 93 288 130 539
130 881 -1 278 -21 446 -85 701 -88 350 -276 743 -487 1017 -65 84 -134 108
-198 68z"/>
</g>
</svg>
