<?xml version="1.0" encoding="UTF-8" standalone="no"?>
<!DOCTYPE svg PUBLIC "-//W3C//DTD SVG 1.0//EN" "http://www.w3.org/TR/2001/REC-SVG-20010904/DTD/svg10.dtd">
<!-- Generated by Microsoft Visio 11.0, SVG Export, v1.0 CMOS NAND Layout 2.svg Page-1 -->
<svg xmlns="http://www.w3.org/2000/svg" xmlns:v="http://schemas.microsoft.com/visio/2003/SVGExtensions/" width="3.27in" height="6.52in" viewBox="0 0 235.44 469.44" xml:space="preserve" color-interpolation-filters="sRGB" class="st9">
	<v:documentProperties v:langID="1033"/>

	<style type="text/css">
	<![CDATA[
		.st1 {fill:none;stroke:#000000;stroke-dasharray:1.68,1.2,0,1.2,0,1.2;stroke-linecap:round;stroke-linejoin:round;stroke-width:0.24}
		.st2 {fill:#ffff99;stroke:#000000;stroke-linecap:round;stroke-linejoin:round;stroke-width:0.24}
		.st3 {fill:#ff9999;stroke:#000000;stroke-linecap:round;stroke-linejoin:round;stroke-width:0.24}
		.st4 {fill:#99ff66;fill-opacity:0.75;stroke:#000000;stroke-linecap:round;stroke-linejoin:round;stroke-width:0.24}
		.st5 {fill:#000000;font-family:Arial;font-size:8pt}
		.st6 {fill:#99ccff;stroke:#000000;stroke-linecap:round;stroke-linejoin:round;stroke-width:0.24}
		.st7 {fill:none;stroke:none;stroke-linecap:round;stroke-linejoin:round;stroke-width:0.72}
		.st8 {fill:#000000;stroke:#000000;stroke-linecap:round;stroke-linejoin:round;stroke-width:0.24}
		.st9 {fill:none;fill-rule:evenodd;font-size:12;overflow:visible;stroke-linecap:square;stroke-miterlimit:3}
	]]>
	</style>

	<g v:mID="0" v:index="1" v:groupContext="foregroundPage">
		<title>Page-1</title>
		<v:pageProperties v:drawingScale="1" v:pageScale="1" v:drawingUnits="19" v:shadowOffsetX="9" v:shadowOffsetY="-9"/>
		<g id="shape1-1" v:mID="1" v:groupContext="shape" transform="translate(0.72,-288.72)">
			<title>Sheet.1</title>
			<path d="M0 469.44 L234 469.44 L234 289.44 L0 289.44 L0 469.44 Z" class="st1"/>
		</g>
		<g id="shape2-3" v:mID="2" v:groupContext="shape" transform="translate(72.72,-333.72)">
			<title>Sheet.2</title>
			<rect x="0" y="406.44" width="135" height="63" class="st2"/>
		</g>
		<g id="shape3-5" v:mID="3" v:groupContext="shape" transform="translate(72.72,-180.72)">
			<title>Sheet.3</title>
			<rect x="0" y="406.44" width="135" height="63" class="st3"/>
		</g>
		<g id="shape4-7" v:mID="4" v:groupContext="shape" transform="translate(99.72,-162.72)">
			<title>Sheet.4</title>
			<desc>B</desc>
			<v:userDefs/>
			<v:textBlock v:margins="rect(4,4,4,4)" v:verticalAlign="0"/>
			<v:textRect cx="13.5" cy="343.44" width="27" height="252"/>
			<rect x="0" y="217.44" width="27" height="252" class="st4"/>
			<text x="9.94" y="231.04" class="st5" v:langID="1033"><v:paragraph v:horizAlign="1"/><v:tabList/>B</text>		</g>
		<g id="shape5-10" v:mID="5" v:groupContext="shape" transform="translate(153.72,-162.72)">
			<title>Sheet.5</title>
			<desc>A</desc>
			<v:userDefs/>
			<v:textBlock v:margins="rect(4,4,4,4)" v:verticalAlign="0"/>
			<v:textRect cx="13.5" cy="343.44" width="27" height="252"/>
			<rect x="0" y="217.44" width="27" height="252" class="st4"/>
			<text x="9.94" y="231.04" class="st5" v:langID="1033"><v:paragraph v:horizAlign="1"/><v:tabList/>A</text>		</g>
		<g id="group6-13" transform="translate(0.72,-72.72)" v:mID="6" v:groupContext="group">
			<title>Sheet.6</title>
			<g id="shape7-14" v:mID="7" v:groupContext="shape">
				<title>Sheet.7</title>
				<rect x="0" y="451.44" width="18" height="18" class="st6"/>
			</g>
			<g id="shape8-16" v:mID="8" v:groupContext="shape" transform="translate(18,5.68434E-014)">
				<title>Sheet.8</title>
				<desc>METAL1</desc>
				<v:userDefs/>
				<v:textBlock v:margins="rect(4,4,4,4)"/>
				<v:textRect cx="36" cy="460.44" width="72" height="18"/>
				<rect x="0" y="451.44" width="72" height="18" class="st7"/>
				<text x="4" y="463.64" class="st5" v:langID="1033"><v:paragraph/><v:tabList/>METAL1</text>			</g>
		</g>
		<g id="group9-19" transform="translate(0.72,-36.72)" v:mID="9" v:groupContext="group">
			<title>Sheet.9</title>
			<g id="shape10-20" v:mID="10" v:groupContext="shape">
				<title>Sheet.10</title>
				<rect x="0" y="451.44" width="18" height="18" class="st4"/>
			</g>
			<g id="shape11-22" v:mID="11" v:groupContext="shape" transform="translate(18,5.68434E-014)">
				<title>Sheet.11</title>
				<desc>POLY</desc>
				<v:userDefs/>
				<v:textBlock v:margins="rect(4,4,4,4)"/>
				<v:textRect cx="36" cy="460.44" width="72" height="18"/>
				<rect x="0" y="451.44" width="72" height="18" class="st7"/>
				<text x="4" y="463.64" class="st5" v:langID="1033"><v:paragraph/><v:tabList/>POLY</text>			</g>
		</g>
		<g id="group12-25" transform="translate(0.72,-0.72)" v:mID="12" v:groupContext="group">
			<title>Sheet.12</title>
			<g id="shape13-26" v:mID="13" v:groupContext="shape">
				<title>Sheet.13</title>
				<rect x="0" y="451.44" width="18" height="18" class="st8"/>
			</g>
			<g id="shape14-28" v:mID="14" v:groupContext="shape" transform="translate(18,5.68434E-014)">
				<title>Sheet.14</title>
				<desc>CONTACT</desc>
				<v:userDefs/>
				<v:textBlock v:margins="rect(4,4,4,4)"/>
				<v:textRect cx="36" cy="460.44" width="72" height="18"/>
				<rect x="0" y="451.44" width="72" height="18" class="st7"/>
				<text x="4" y="463.64" class="st5" v:langID="1033"><v:paragraph/><v:tabList/>CONTACT</text>			</g>
		</g>
		<g id="group15-31" transform="translate(126.72,-72.72)" v:mID="15" v:groupContext="group">
			<title>Sheet.15</title>
			<g id="shape16-32" v:mID="16" v:groupContext="shape">
				<title>Sheet.16</title>
				<rect x="0" y="451.44" width="18" height="18" class="st3"/>
			</g>
			<g id="shape17-34" v:mID="17" v:groupContext="shape" transform="translate(18,5.68434E-014)">
				<title>Sheet.17</title>
				<desc>N DIFFUSION</desc>
				<v:userDefs/>
				<v:textBlock v:margins="rect(4,4,4,4)"/>
				<v:textRect cx="40.14" cy="460.44" width="80.28" height="18"/>
				<rect x="0" y="451.44" width="80.28" height="18" class="st7"/>
				<text x="4" y="463.64" class="st5" v:langID="1033"><v:paragraph/><v:tabList/>N DIFFUSION</text>			</g>
		</g>
		<g id="group18-37" transform="translate(126.72,-0.72)" v:mID="18" v:groupContext="group">
			<title>Sheet.18</title>
			<g id="shape19-38" v:mID="19" v:groupContext="shape">
				<title>Sheet.19</title>
				<path d="M0 469.44 L18 469.44 L18 451.44 L0 451.44 L0 469.44 Z" class="st1"/>
			</g>
			<g id="shape20-40" v:mID="20" v:groupContext="shape" transform="translate(18,5.68434E-014)">
				<title>Sheet.20</title>
				<desc>N-WELL</desc>
				<v:userDefs/>
				<v:textBlock v:margins="rect(4,4,4,4)"/>
				<v:textRect cx="36" cy="460.44" width="72" height="18"/>
				<rect x="0" y="451.44" width="72" height="18" class="st7"/>
				<text x="4" y="463.64" class="st5" v:langID="1033"><v:paragraph/><v:tabList/>N-WELL</text>			</g>
		</g>
		<g id="group21-43" transform="translate(126.72,-36.72)" v:mID="21" v:groupContext="group">
			<title>Sheet.21</title>
			<g id="shape22-44" v:mID="22" v:groupContext="shape">
				<title>Sheet.22</title>
				<rect x="0" y="451.44" width="18" height="18" class="st2"/>
			</g>
			<g id="shape23-46" v:mID="23" v:groupContext="shape" transform="translate(18,5.68434E-014)">
				<title>Sheet.23</title>
				<desc>P DIFFUSION</desc>
				<v:userDefs/>
				<v:textBlock v:margins="rect(4,4,4,4)"/>
				<v:textRect cx="40.14" cy="460.44" width="80.28" height="18"/>
				<rect x="0" y="451.44" width="80.28" height="18" class="st7"/>
				<text x="4" y="463.64" class="st5" v:langID="1033"><v:paragraph/><v:tabList/>P DIFFUSION</text>			</g>
		</g>
		<g id="shape24-49" v:mID="24" v:groupContext="shape" transform="translate(27.72,-333.72)">
			<title>Sheet.24</title>
			<rect x="0" y="406.44" width="27" height="63" class="st3"/>
		</g>
		<g id="shape25-51" v:mID="25" v:groupContext="shape" transform="translate(27.72,-180.72)">
			<title>Sheet.25</title>
			<rect x="0" y="406.44" width="27" height="63" class="st2"/>
		</g>
		<g id="shape26-53" v:mID="26" v:groupContext="shape" transform="translate(0.72,-356.22)">
			<title>Sheet.26</title>
			<path d="M202.5 392.94 L234 392.94 L234 356.94 L0 356.94 L0 392.94 L76.5 392.94 L76.5 451.44 L31.5 451.44 L31.5 469.44        L76.5 469.44 L94.5 469.44 L94.5 451.44 L94.5 392.94 L184.5 392.94 L184.5 469.44 L202.5 469.44 L202.5 392.94        Z" class="st6"/>
		</g>
		<g id="shape27-55" v:mID="27" v:groupContext="shape" transform="translate(131.22,-203.782)">
			<title>Sheet.27</title>
			<path d="M72 411.5 L103.5 411.5 L103.5 393.5 L72 393.5 L54 393.5 L18 393.5 L18 299.56 L0 299.56 L0 393.5 L0 411.5 L54        411.5 L54 469.44 L72 469.44 L72 411.5 Z" class="st6"/>
		</g>
		<g id="shape28-57" v:mID="28" v:groupContext="shape" transform="translate(135.72,-360.72)">
			<title>Sheet.28</title>
			<rect x="0" y="460.44" width="9" height="9" class="st8"/>
		</g>
		<g id="shape29-59" v:mID="29" v:groupContext="shape" transform="translate(189.72,-360.72)">
			<title>Sheet.29</title>
			<rect x="0" y="460.44" width="9" height="9" class="st8"/>
		</g>
		<g id="shape30-61" v:mID="30" v:groupContext="shape" transform="translate(189.72,-207.72)">
			<title>Sheet.30</title>
			<rect x="0" y="460.44" width="9" height="9" class="st8"/>
		</g>
		<g id="shape31-63" v:mID="31" v:groupContext="shape" transform="translate(81.72,-360.72)">
			<title>Sheet.31</title>
			<rect x="0" y="460.44" width="9" height="9" class="st8"/>
		</g>
		<g id="shape32-65" v:mID="32" v:groupContext="shape" transform="translate(36.72,-360.72)">
			<title>Sheet.32</title>
			<rect x="0" y="460.44" width="9" height="9" class="st8"/>
		</g>
		<g id="shape33-67" v:mID="33" v:groupContext="shape" transform="translate(0.72,-450.72)">
			<title>Sheet.33</title>
			<desc>VDD</desc>
			<v:userDefs/>
			<v:textBlock v:margins="rect(4,4,4,4)"/>
			<v:textRect cx="117" cy="460.44" width="234" height="18"/>
			<rect x="0" y="451.44" width="234" height="18" class="st7"/>
			<text x="105.74" y="463.64" class="st5" v:langID="1033"><v:paragraph v:horizAlign="1"/><v:tabList/>VDD</text>		</g>
		<g id="shape34-70" v:mID="34" v:groupContext="shape" transform="translate(198.72,-261.72)">
			<title>Sheet.34</title>
			<desc>OUT</desc>
			<v:userDefs/>
			<v:textBlock v:margins="rect(4,4,4,4)"/>
			<v:textRect cx="18" cy="460.44" width="36" height="18"/>
			<rect x="0" y="451.44" width="36" height="18" class="st7"/>
			<text x="6.74" y="463.64" class="st5" v:langID="1033"><v:paragraph v:horizAlign="1"/><v:tabList/>OUT</text>		</g>
		<g id="shape35-73" v:mID="35" v:groupContext="shape" transform="translate(0.72,-126.72)">
			<title>Sheet.35</title>
			<desc>VSS</desc>
			<v:userDefs/>
			<v:textBlock v:margins="rect(4,4,4,4)"/>
			<v:textRect cx="117" cy="460.44" width="234" height="18"/>
			<rect x="0" y="451.44" width="234" height="18" class="st7"/>
			<text x="106.33" y="463.64" class="st5" v:langID="1033"><v:paragraph v:horizAlign="1"/><v:tabList/>VSS</text>		</g>
		<g id="shape36-76" v:mID="36" v:groupContext="shape" transform="translate(0.72,-108.72)">
			<title>Sheet.36</title>
			<path d="M94.5 392.94 L94.5 374.94 L94.5 356.94 L31.5 356.94 L31.5 374.94 L76.5 374.94 L76.5 392.94 L76.5 433.44 L0 433.44        L0 469.44 L234 469.44 L234 433.44 L94.5 433.44 L94.5 392.94 Z" class="st6"/>
		</g>
		<g id="shape37-78" v:mID="37" v:groupContext="shape" transform="translate(81.72,-207.72)">
			<title>Sheet.37</title>
			<rect x="0" y="460.44" width="9" height="9" class="st8"/>
		</g>
		<g id="shape38-80" v:mID="38" v:groupContext="shape" transform="translate(36.72,-207.72)">
			<title>Sheet.38</title>
			<rect x="0" y="460.44" width="9" height="9" class="st8"/>
		</g>
	</g>
</svg>